<svg width="180" height="180" viewBox="0 0 180 180" fill="none" xmlns="http://www.w3.org/2000/svg">
<g clip-path="url(#clip0_15_3096)">
<rect width="180" height="180" rx="20" fill="#E6F0FF"/>
<path d="M19.4902 127.662L1.53965 140.288C-0.909665 142.01 -2.36719 144.818 -2.36719 147.812V171.527C-2.36719 176.607 1.75143 180.726 6.83201 180.726H173.169C178.25 180.726 182.368 176.607 182.368 171.527V133.394C182.368 130.639 181.134 128.03 179.005 126.282L137.038 91.8451C130.493 86.4739 120.949 86.9061 114.916 92.8471L66.9567 140.073C62.6599 144.304 55.7627 144.304 51.4659 140.073L40.6345 129.407C34.9337 123.794 26.0344 123.059 19.4902 127.662Z" fill="#91B9F7"/>
<circle cx="17.4194" cy="17.4194" r="17.4194" transform="matrix(-1 0 0 1 69.6772 46.4516)" fill="#91B9F7"/>
</g>
<defs>
<clipPath id="clip0_15_3096">
<rect width="180" height="180" rx="20" fill="white"/>
</clipPath>
</defs>
</svg>
