<svg width="87" height="28" viewBox="0 0 87 28" fill="none" xmlns="http://www.w3.org/2000/svg">
<path d="M8.19564 21.6382C6.70772 21.6382 5.39372 21.387 4.25362 20.8845C3.11353 20.3628 2.21498 19.6285 1.55798 18.6817C0.900978 17.7155 0.562815 16.5464 0.543492 15.1744H4.45652C4.49517 16.1213 4.83333 16.9232 5.47101 17.5802C6.12801 18.2179 7.02656 18.5367 8.16665 18.5367C9.15216 18.5367 9.93476 18.3048 10.5145 17.8411C11.0942 17.358 11.384 16.7203 11.384 15.928C11.384 15.0971 11.1232 14.4498 10.6014 13.986C10.099 13.5223 9.42269 13.1454 8.57245 12.8556C7.72221 12.5657 6.814 12.2566 5.84782 11.9281C4.28261 11.387 3.08455 10.6913 2.25363 9.84111C1.44204 8.99087 1.03624 7.86044 1.03624 6.44982C1.01692 5.25175 1.29711 4.2276 1.87682 3.37736C2.47585 2.5078 3.28744 1.84114 4.31159 1.37737C5.33575 0.89428 6.51449 0.652736 7.84781 0.652736C9.20047 0.652736 10.3889 0.89428 11.413 1.37737C12.4565 1.86046 13.2681 2.53679 13.8478 3.40635C14.4468 4.27591 14.7657 5.30972 14.8043 6.50779H10.8333C10.814 5.79281 10.5338 5.1648 9.99273 4.62373C9.471 4.06335 8.7367 3.78316 7.78984 3.78316C6.97825 3.76384 6.29226 3.96673 5.73188 4.39185C5.19082 4.79765 4.92029 5.39668 4.92029 6.18895C4.92029 6.86527 5.13285 7.40633 5.55797 7.81213C5.98309 8.1986 6.56279 8.5271 7.29709 8.79763C8.03139 9.06816 8.87196 9.35802 9.81882 9.6672C10.8236 10.015 11.7415 10.4208 12.5724 10.8846C13.4034 11.3483 14.07 11.9667 14.5724 12.7396C15.0748 13.4933 15.326 14.4691 15.326 15.6672C15.326 16.73 15.0555 17.7155 14.5145 18.6237C13.9734 19.5319 13.1715 20.2662 12.1087 20.8266C11.0459 21.3676 9.74153 21.6382 8.19564 21.6382ZM18.4762 21.2903V0.420852H22.1863V9.11647C22.6694 8.32421 23.3167 7.70585 24.1283 7.26141C24.9592 6.79764 25.9061 6.56576 26.9689 6.56576C28.7467 6.56576 30.1186 7.12614 31.0848 8.24691C32.0703 9.36768 32.5631 11.0102 32.5631 13.1744V21.2903H28.8819V13.5223C28.8819 12.2855 28.6307 11.3387 28.1283 10.6817C27.6452 10.0247 26.8723 9.69618 25.8095 9.69618C24.766 9.69618 23.8964 10.0633 23.2008 10.7976C22.5245 11.5319 22.1863 12.5561 22.1863 13.8701V21.2903H18.4762ZM43.0094 21.6382C41.6181 21.6382 40.362 21.3193 39.2413 20.6817C38.1398 20.044 37.2606 19.1647 36.6036 18.044C35.9659 16.9039 35.6471 15.5899 35.6471 14.102C35.6471 12.614 35.9756 11.3097 36.6326 10.1889C37.2896 9.04884 38.1688 8.15995 39.2703 7.52228C40.391 6.8846 41.6471 6.56576 43.0384 6.56576C44.4103 6.56576 45.647 6.8846 46.7485 7.52228C47.8693 8.15995 48.7485 9.04884 49.3862 10.1889C50.0432 11.3097 50.3717 12.614 50.3717 14.102C50.3717 15.5899 50.0432 16.9039 49.3862 18.044C48.7485 19.1647 47.8693 20.044 46.7485 20.6817C45.6277 21.3193 44.3814 21.6382 43.0094 21.6382ZM43.0094 18.4208C43.9756 18.4208 44.8161 18.0633 45.5311 17.3483C46.2461 16.614 46.6036 15.5319 46.6036 14.102C46.6036 12.672 46.2461 11.5996 45.5311 10.8846C44.8161 10.1503 43.9852 9.78314 43.0384 9.78314C42.0529 9.78314 41.2026 10.1503 40.4876 10.8846C39.792 11.5996 39.4442 12.672 39.4442 14.102C39.4442 15.5319 39.792 16.614 40.4876 17.3483C41.2026 18.0633 42.0432 18.4208 43.0094 18.4208ZM53.6889 27.6671V6.91358H56.9932L57.399 8.97155C57.8628 8.33387 58.4715 7.77348 59.2251 7.29039C59.9981 6.8073 60.9932 6.56576 62.2106 6.56576C63.5633 6.56576 64.771 6.89426 65.8338 7.55126C66.8966 8.20826 67.7372 9.10681 68.3555 10.2469C68.9739 11.387 69.2831 12.6817 69.2831 14.1309C69.2831 15.5802 68.9739 16.8749 68.3555 18.015C67.7372 19.1358 66.8966 20.0246 65.8338 20.6817C64.771 21.3193 63.5633 21.6382 62.2106 21.6382C61.1285 21.6382 60.1816 21.4353 59.3701 21.0295C58.5585 20.6237 57.9015 20.0536 57.399 19.3193V27.6671H53.6889ZM61.428 18.3918C62.6068 18.3918 63.5826 17.9957 64.3555 17.2034C65.1285 16.4111 65.515 15.387 65.515 14.1309C65.515 12.8749 65.1285 11.8411 64.3555 11.0295C63.5826 10.2179 62.6068 9.81212 61.428 9.81212C60.23 9.81212 59.2444 10.2179 58.4715 11.0295C57.7179 11.8218 57.3411 12.8459 57.3411 14.102C57.3411 15.358 57.7179 16.3918 58.4715 17.2034C59.2444 17.9957 60.23 18.3918 61.428 18.3918ZM73.0924 27.6671L76.4257 20.3338H75.5561L69.9619 6.91358H73.9909L78.0199 17.0295L82.2228 6.91358H86.1648L77.0344 27.6671H73.0924Z" fill="#201F22"/>
</svg>
