<svg width="24" height="24" viewBox="0 0 24 24" fill="none" xmlns="http://www.w3.org/2000/svg">
<g id="S/Trash can">
<g id="Union">
<path d="M14.7497 11C14.7497 10.5858 14.4139 10.25 13.9997 10.25C13.5855 10.25 13.2497 10.5858 13.2497 11V17C13.2497 17.4142 13.5855 17.75 13.9997 17.75C14.4139 17.75 14.7497 17.4142 14.7497 17V11Z" fill="#A3A3A3"/>
<path d="M9.9997 10.25C10.4139 10.25 10.7497 10.5858 10.7497 11V17C10.7497 17.4142 10.4139 17.75 9.9997 17.75C9.58549 17.75 9.2497 17.4142 9.2497 17V11C9.2497 10.5858 9.58549 10.25 9.9997 10.25Z" fill="#A3A3A3"/>
<path fill-rule="evenodd" clip-rule="evenodd" d="M10.4412 2.25C9.25754 2.25 8.20666 3.00743 7.83234 4.13037L7.45914 5.25H6.41743C4.39121 5.25 3.23461 7.56321 4.45034 9.18418C4.96922 9.87601 5.24971 10.7175 5.24971 11.5823V18C5.24971 20.6234 7.37635 22.75 9.9997 22.75H13.9997C16.6231 22.75 18.7497 20.6234 18.7497 18V11.5823C18.7497 10.7175 19.0302 9.87601 19.5491 9.18418C20.7648 7.56321 19.6082 5.25 17.582 5.25H16.5403L16.1671 4.13037C15.7928 3.00743 14.7419 2.25 13.5582 2.25H10.4412ZM15.9822 6.75C15.9938 6.75027 16.0054 6.75027 16.017 6.75H17.582C18.3721 6.75 18.8232 7.65206 18.3491 8.28418C17.6355 9.23566 17.2497 10.3929 17.2497 11.5823V18C17.2497 19.7949 15.7946 21.25 13.9997 21.25H9.9997C8.20478 21.25 6.7497 19.7949 6.7497 18V11.5823C6.7497 10.3929 6.36395 9.23566 5.65034 8.28418C5.17625 7.65206 5.62728 6.75 6.41743 6.75H7.98241C7.99404 6.75027 8.00564 6.75027 8.01721 6.75H15.9822ZM14.9591 5.25L14.744 4.60472C14.5739 4.09429 14.0962 3.75 13.5582 3.75H10.4412C9.90319 3.75 9.42551 4.09429 9.25537 4.60472L9.04027 5.25H14.9591Z" fill="#A3A3A3"/>
</g>
</g>
</svg>
